<?xml version="1.0" encoding="UTF-8" standalone="no"?>
<!-- Created with Inkscape (http://www.inkscape.org/) -->

<svg
   xmlns:dc="http://purl.org/dc/elements/1.1/"
   xmlns:cc="http://creativecommons.org/ns#"
   xmlns:rdf="http://www.w3.org/1999/02/22-rdf-syntax-ns#"
   xmlns:svg="http://www.w3.org/2000/svg"
   xmlns="http://www.w3.org/2000/svg"
   xmlns:sodipodi="http://sodipodi.sourceforge.net/DTD/sodipodi-0.dtd"
   xmlns:inkscape="http://www.inkscape.org/namespaces/inkscape"
   id="svg2"
   version="1.1"
   inkscape:version="0.48.3.1 r9886"
   width="390.3875"
   height="269.7625"
   xml:space="preserve"
   sodipodi:docname="Decay of error.svg"><metadata
     id="metadata8"><rdf:RDF><cc:Work
         rdf:about=""><dc:format>image/svg+xml</dc:format><dc:type
           rdf:resource="http://purl.org/dc/dcmitype/StillImage" /><dc:title /></cc:Work></rdf:RDF></metadata><defs
     id="defs6"><clipPath
       clipPathUnits="userSpaceOnUse"
       id="clipPath20"><path
         d="m 1,12 3111,0 0,2146 L 1,2158 1,12 z"
         clip-rule="evenodd"
         id="path22" /></clipPath><clipPath
       clipPathUnits="userSpaceOnUse"
       id="clipPath44"><path
         d="m 356.977,357.531 1742.303,0 0,1714.259 -1742.303,0 0,-1714.259 0,0 z"
         clip-rule="evenodd"
         id="path46" /></clipPath><clipPath
       clipPathUnits="userSpaceOnUse"
       id="clipPath56"><path
         d="m 1.20703,12.3789 3110.46997,0 0,2145.62 -3110.46997,0 0,-2145.62 z"
         clip-rule="evenodd"
         id="path58" /></clipPath></defs><sodipodi:namedview
     pagecolor="#ffffff"
     bordercolor="#666666"
     borderopacity="1"
     objecttolerance="10"
     gridtolerance="10"
     guidetolerance="10"
     inkscape:pageopacity="0"
     inkscape:pageshadow="2"
     inkscape:window-width="1302"
     inkscape:window-height="884"
     id="namedview4"
     showgrid="false"
     inkscape:zoom="2.0149341"
     inkscape:cx="190.83574"
     inkscape:cy="151.99624"
     inkscape:window-x="65"
     inkscape:window-y="24"
     inkscape:window-maximized="0"
     inkscape:current-layer="g54" /><g
     id="g10"
     inkscape:groupmode="layer"
     inkscape:label="ink_ext_XXXXXX"
     transform="matrix(1.25,0,0,-1.25,0,269.7625)"><g
       id="g12"
       transform="scale(0.1,0.1)"><path
         d="m 1.20703,2152.33 3110.47297,0 0,-2145.70109 -3110.47297,0 0,2145.70109"
         style="fill:#ffffff;fill-opacity:1;fill-rule:evenodd;stroke:none"
         id="path14" /><g
         id="g16"><g
           id="g18"
           clip-path="url(#clipPath20)"><path
             d="m 384.324,2066.04 1842.526,0 0,-1702.759 -1842.526,0 0,1702.759"
             style="fill:#ffffff;fill-opacity:1;fill-rule:evenodd;stroke:none"
             id="path24" /><path
             d="m 354.434,2068.91 1737.236,0 m -1737.236,-212.84 1737.236,0 m -1737.236,-212.85 1737.236,0 m -1737.236,-212.84 1737.236,0 m -1737.236,-218.59 1737.236,0 M 354.434,998.941 l 1737.236,0 M 354.434,786.102 l 1737.236,0 M 354.434,573.25 l 1737.236,0"
             style="fill:none;stroke:#76797b;stroke-opacity:1;stroke-width:7.48421;stroke-linecap:butt;stroke-linejoin:round;stroke-miterlimit:10;stroke-dasharray:none"
             id="path26" /><path
             d="m 2091.67,360.398 0,1708.512"
             style="fill:none;stroke:#76797b;stroke-opacity:1;stroke-width:7.48421;stroke-linecap:butt;stroke-linejoin:round;stroke-miterlimit:10;stroke-dasharray:none"
             id="path28" /><path
             d="m 2031.67,2068.91 20.32,0 m 39.68,-189.82 20.32,0 m -20.32,-189.84 20.32,0 m -20.32,-189.84 20.32,0 m -20.32,-189.82 20.32,0 m -20.32,-189.84 20.32,0 m -20.32,-189.828 20.32,0 m -20.32,-189.84 20.32,0 m -20.32,-189.844 20.32,0 m -80.32,-189.84 20.32,0"
             style="fill:none;stroke:#76797b;stroke-opacity:1;stroke-width:7.48421;stroke-linecap:butt;stroke-linejoin:round;stroke-miterlimit:10;stroke-dasharray:none"
             id="path30" /><path
             d="m 354.434,360.398 0,1708.512"
             style="fill:none;stroke:#76797b;stroke-opacity:1;stroke-width:7.48421;stroke-linecap:butt;stroke-linejoin:round;stroke-miterlimit:10;stroke-dasharray:none"
             id="path32" /><path
             d="m 334.105,2068.91 20.329,0 m -20.329,-212.84 20.329,0 m -20.329,-212.85 20.329,0 m -20.329,-212.84 20.329,0 m -20.329,-218.59 20.329,0 m -20.329,-212.849 20.329,0 m -20.329,-212.839 20.329,0 m -20.329,-212.852 20.329,0"
             style="fill:none;stroke:#76797b;stroke-opacity:1;stroke-width:7.48421;stroke-linecap:butt;stroke-linejoin:round;stroke-miterlimit:10;stroke-dasharray:none"
             id="path34" /><path
             d="m 414.434,360.398 1677.236,0"
             style="fill:none;stroke:#76797b;stroke-opacity:1;stroke-width:7.48421;stroke-linecap:butt;stroke-linejoin:round;stroke-miterlimit:10;stroke-dasharray:none"
             id="path36" /><path
             d="m 2031.67,360.398 0,-23.007 m -335.45,23.007 0,-23.007 m -335.45,23.007 0,-23.007 m -335.44,23.007 0,-23.007 m -335.447,23.007 0,-23.007 m -335.449,23.007 0,-23.007"
             style="fill:none;stroke:#76797b;stroke-opacity:1;stroke-width:7.48421;stroke-linecap:butt;stroke-linejoin:round;stroke-miterlimit:10;stroke-dasharray:none"
             id="path38" /></g></g><g
         id="g40"><g
           id="g42"
           clip-path="url(#clipPath44)"><path
             d="m 455.543,2034.37 c 55.926,-176.84 100.668,-374.77 167.777,-530.53 67.11,-155.75 167.774,-316.98 234.879,-404.02 64.977,-84.29 119.043,-81.08 167.771,-118.281 50.33,-38.398 78.29,-76.617 134.22,-112.187 55.92,-35.582 139.81,-73.543 201.32,-101.223 61.52,-27.688 100.67,-40.578 167.78,-64.899 67.1,-24.281 162.17,-58.242 234.88,-80.871 72.7,-22.589 134.21,-36.507 201.32,-54.777"
             style="fill:none;stroke:#4f7cc2;stroke-opacity:1;stroke-width:22.4526;stroke-linecap:round;stroke-linejoin:round;stroke-miterlimit:10;stroke-dasharray:none"
             id="path48" /><path
             d="m 623.32,1113.18 c 78.289,235.93 167.774,797 234.879,707.78 67.11,-89.19 117.438,-1039.472 167.771,-1243.011 18.27,-73.89 113.91,13.672 134.22,21.801 55.92,22.41 139.81,132.641 201.32,112.672 61.52,-19.961 100.67,-224.942 167.78,-232.551 67.1,-7.59 156.57,124.641 234.88,186.961"
             style="fill:none;stroke:#bb3e49;stroke-opacity:1;stroke-width:22.4526;stroke-linecap:round;stroke-linejoin:round;stroke-miterlimit:10;stroke-dasharray:none"
             id="path50" /></g></g><g
         id="g52"><g
           id="g54"
           clip-path="url(#clipPath56)"><g
             id="g60"
             transform="scale(10,10)"><text
   transform="matrix(0.883522,0,0,-1,214.8,33.773)"
   id="text62"><tspan
     style="fill:#050606;fill-opacity:1;fill-rule:nonzero;stroke:none;font-family:Calibri;font-variant:normal;font-weight:normal;font-size:7.47831;writing-mode:lr;-inkscape-font-specification:Calibri"
     x="0 2.29770267"
     y="0"
     sodipodi:role="line"
     id="tspan64">-2</tspan><tspan
     style="fill:#050606;fill-opacity:1;fill-rule:nonzero;stroke:none;font-family:Calibri;font-variant:normal;font-weight:normal;font-size:7.47831;writing-mode:lr;-inkscape-font-specification:Calibri"
     x="1.13183"
     y="-18.952"
     id="tspan66">0</tspan><tspan
     style="fill:#050606;fill-opacity:1;fill-rule:nonzero;stroke:none;font-family:Calibri;font-variant:normal;font-weight:normal;font-size:7.47831;writing-mode:lr;-inkscape-font-specification:Calibri"
     x="1.13183"
     y="-37.904"
     id="tspan68">2</tspan><tspan
     style="fill:#050606;fill-opacity:1;fill-rule:nonzero;stroke:none;font-family:Calibri;font-variant:normal;font-weight:normal;font-size:7.47831;writing-mode:lr;-inkscape-font-specification:Calibri"
     x="1.13183"
     y="-56.854"
     id="tspan70">4</tspan><tspan
     style="fill:#050606;fill-opacity:1;fill-rule:nonzero;stroke:none;font-family:Calibri;font-variant:normal;font-weight:normal;font-size:7.47831;writing-mode:lr;-inkscape-font-specification:Calibri"
     x="1.13183"
     y="-75.813"
     id="tspan72">6</tspan><tspan
     style="fill:#050606;fill-opacity:1;fill-rule:nonzero;stroke:none;font-family:Calibri;font-variant:normal;font-weight:normal;font-size:7.47831;writing-mode:lr;-inkscape-font-specification:Calibri"
     x="1.13183"
     y="-94.7634"
     id="tspan74">8</tspan><tspan
     style="fill:#050606;fill-opacity:1;fill-rule:nonzero;stroke:none;font-family:Calibri;font-variant:normal;font-weight:normal;font-size:7.47831;writing-mode:lr;-inkscape-font-specification:Calibri"
     x="1.13183 5.15425964"
     y="-113.715"
     sodipodi:role="line"
     id="tspan76">10</tspan><tspan
     style="fill:#050606;fill-opacity:1;fill-rule:nonzero;stroke:none;font-family:Calibri;font-variant:normal;font-weight:normal;font-size:7.47831;writing-mode:lr;-inkscape-font-specification:Calibri"
     x="1.13183 5.15425964"
     y="-132.6666"
     sodipodi:role="line"
     id="tspan78">12</tspan><tspan
     style="fill:#050606;fill-opacity:1;fill-rule:nonzero;stroke:none;font-family:Calibri;font-variant:normal;font-weight:normal;font-size:7.47831;writing-mode:lr;-inkscape-font-specification:Calibri"
     x="1.13183 5.15425964"
     y="-151.6236"
     sodipodi:role="line"
     id="tspan80">14</tspan><tspan
     style="fill:#050606;fill-opacity:1;fill-rule:nonzero;stroke:none;font-family:Calibri;font-variant:normal;font-weight:normal;font-size:7.47831;writing-mode:lr;-inkscape-font-specification:Calibri"
     x="1.13183 5.15425964"
     y="-170.5759"
     sodipodi:role="line"
     id="tspan82">16</tspan><tspan
     style="fill:#050606;fill-opacity:1;fill-rule:nonzero;stroke:none;font-family:Calibri;font-variant:normal;font-weight:normal;font-size:7.47831;writing-mode:lr;-inkscape-font-specification:Calibri"
     x="-221.44817 -217.42573737 -213.4037467"
     y="0.0001"
     sodipodi:role="line"
     id="tspan84">140</tspan><tspan
     style="fill:#050606;fill-opacity:1;fill-rule:nonzero;stroke:none;font-family:Calibri;font-variant:normal;font-weight:normal;font-size:7.47831;writing-mode:lr;-inkscape-font-specification:Calibri"
     x="-221.44817 -217.42573737 -213.4037467"
     y="-21.3237"
     sodipodi:role="line"
     id="tspan86">150</tspan><tspan
     style="fill:#050606;fill-opacity:1;fill-rule:nonzero;stroke:none;font-family:Calibri;font-variant:normal;font-weight:normal;font-size:7.47831;writing-mode:lr;-inkscape-font-specification:Calibri"
     x="-221.44817 -217.42573737 -213.4037467"
     y="-42.6397"
     sodipodi:role="line"
     id="tspan88">160</tspan><tspan
     style="fill:#050606;fill-opacity:1;fill-rule:nonzero;stroke:none;font-family:Calibri;font-variant:normal;font-weight:normal;font-size:7.47831;writing-mode:lr;-inkscape-font-specification:Calibri"
     x="-221.44817 -217.42573737 -213.4037467"
     y="-63.9647"
     sodipodi:role="line"
     id="tspan90">170</tspan><tspan
     style="fill:#050606;fill-opacity:1;fill-rule:nonzero;stroke:none;font-family:Calibri;font-variant:normal;font-weight:normal;font-size:7.47831;writing-mode:lr;-inkscape-font-specification:Calibri"
     x="-221.44817 -217.42573737 -213.4037467"
     y="-85.2877"
     sodipodi:role="line"
     id="tspan92">180</tspan><tspan
     style="fill:#050606;fill-opacity:1;fill-rule:nonzero;stroke:none;font-family:Calibri;font-variant:normal;font-weight:normal;font-size:7.47831;writing-mode:lr;-inkscape-font-specification:Calibri"
     x="-221.44817 -217.42573737 -213.4037467"
     y="-106.6049"
     sodipodi:role="line"
     id="tspan94">190</tspan><tspan
     style="fill:#050606;fill-opacity:1;fill-rule:nonzero;stroke:none;font-family:Calibri;font-variant:normal;font-weight:normal;font-size:7.47831;writing-mode:lr;-inkscape-font-specification:Calibri"
     x="-221.44817 -217.42573737 -213.4037467"
     y="-127.9346"
     sodipodi:role="line"
     id="tspan96">200</tspan><tspan
     style="fill:#050606;fill-opacity:1;fill-rule:nonzero;stroke:none;font-family:Calibri;font-variant:normal;font-weight:normal;font-size:7.47831;writing-mode:lr;-inkscape-font-specification:Calibri"
     x="-221.44817 -217.42573737 -213.4037467"
     y="-149.2518"
     sodipodi:role="line"
     id="tspan98">210</tspan><tspan
     style="fill:#050606;fill-opacity:1;fill-rule:nonzero;stroke:none;font-family:Calibri;font-variant:normal;font-weight:normal;font-size:7.47831;writing-mode:lr;-inkscape-font-specification:Calibri"
     x="-221.44817 -217.42573737 -213.4037467"
     y="-170.5756"
     sodipodi:role="line"
     id="tspan100">220</tspan><tspan
     style="fill:#050606;fill-opacity:1;fill-rule:nonzero;stroke:none;font-family:Calibri;font-variant:normal;font-weight:normal;font-size:7.47831;writing-mode:lr;-inkscape-font-specification:Calibri"
     x="-204.60947 -168.57650458 -164.55451765 -130.59640934 -126.57353773 -92.61632681 -88.59389717 -54.64326716 -50.62083752 -16.66228051 -12.64117752"
     y="9.9664"
     sodipodi:role="line"
     id="tspan102">01020304050</tspan></text>




<text
   transform="matrix(1.484527e-7,1.1451459,0.87325117,-2.023512e-7,0,0)"
   id="text104"
   x="95.525505"
   y="263.51648"
   style="font-size:12.07621384px"><tspan
     style="font-size:8px;font-variant:normal;font-weight:bold;writing-mode:lr-tb;fill:#050606;fill-opacity:1;fill-rule:nonzero;stroke:none;font-family:Times New Roman;-inkscape-font-specification:Times New Roman"
     x="95.525505 99.571365 103.62195"
     y="263.51648"
     sodipodi:role="line"
     id="tspan106">hPa</tspan><tspan
     style="font-size:8px;font-variant:normal;font-weight:bold;writing-mode:lr-tb;fill:#050606;fill-opacity:1;fill-rule:nonzero;stroke:none;font-family:Times New Roman;-inkscape-font-specification:Times New Roman"
     x="49.76458 54.392639 57.870853 61.923397 64.816673 68.290558 71.768379 75.820137 77.551773"
     y="14.700308"
     sodipodi:role="line"
     id="tspan108">Average quantised error (hPa)</tspan></text>




<text
   transform="scale(0.91149424,-1.0970996)"
   id="text110"
   x="106.24355"
   y="-11.814049"
   style="font-size:12.78029919px"><tspan
     style="font-size:7.25155401px;font-variant:normal;font-weight:bold;writing-mode:lr-tb;fill:#050606;fill-opacity:1;fill-rule:nonzero;stroke:none;font-family:Times New Roman;-inkscape-font-specification:Times New Roman"
     x="106.24355 111.75276 116.03534 122.76881 127.0509 131.33867 134.40027 135.62737 139.91042 142.36554 144.81172 149.09335 153.37593 157.65662 161.94533"
     y="-11.814049"
     sodipodi:role="line"
     id="tspan112">Number of nodes</tspan></text>




</g><path
             d="m 2422.36,1148.51 192.14,0"
             style="fill:none;stroke:#4f7cc2;stroke-opacity:1;stroke-width:22.4526;stroke-linecap:round;stroke-linejoin:round;stroke-miterlimit:10;stroke-dasharray:none"
             id="path114" /><g
             id="g116"
             transform="scale(10,10)"><text
   transform="matrix(0.883522,0,0,-1,265.978,112.51)"
   id="text118"><tspan
     style="fill:#050606;fill-opacity:1;fill-rule:nonzero;stroke:none;font-family:Times New Roman;font-variant:normal;font-weight:normal;font-size:7.47830999999999957;writing-mode:lr;-inkscape-font-specification:Times New Roman"
     x="0 4.60073571 8.62096299 11.49828988 15.52205365 18.96706585 20.68736641 24.71332358 27.01015218 28.73133698 32.75156426 35.05944177 37.92881473 41.95344524"
     y="0"
     sodipodi:role="line"
     id="tspan120">Decay of error</tspan></text>




</g><path
             d="m 2422.36,1010.44 132.14,0"
             style="fill:none;stroke:#bb3e49;stroke-opacity:1;stroke-width:22.4526;stroke-linecap:round;stroke-linejoin:round;stroke-miterlimit:10;stroke-dasharray:none"
             id="path122" /><g
             id="g124"
             transform="scale(10,10)"><text
   transform="matrix(0.883522,0,0,-1,256.978,98.6441)"
   id="text126"><tspan
     style="fill:#050606;fill-opacity:1;fill-rule:nonzero;stroke:none;font-family:Times New Roman;font-variant:normal;font-weight:normal;font-size:7.47830999999999868;writing-mode:lr;-inkscape-font-specification:Times New Roman"
     x="0 4.02465257 8.05062993 12.0743937 16.10125499 19.55246776 23.00456708 24.72575188 26.44870238 30.47556367 32.77239198 36.22448898 38.53325043 42.5570142 46.5816649 48.30638387 52.32572647 56.35170382"
     y="0"
     sodipodi:role="line"
     id="tspan128">Change in gradient</tspan></text>




</g></g></g><path
         d="m 43.515461,2125.6806 3068.025139,0 0,-2093.731013 -3068.025139,0 0,2093.731013 z"
         style="fill:none;stroke:#76797b;stroke-width:7.34374285;stroke-linecap:butt;stroke-linejoin:round;stroke-miterlimit:10;stroke-opacity:1;stroke-dasharray:none"
         id="path130"
         inkscape:connector-curvature="0" /><path
         d="m 336.59656,360.28806 80.329,0"
         style="fill:none;stroke:#76797b;stroke-width:7.48421001;stroke-linecap:butt;stroke-linejoin:round;stroke-miterlimit:10;stroke-opacity:1;stroke-dasharray:none"
         id="path132"
         inkscape:connector-curvature="0" /><path
         d="m 2091.67,360.238 20.32,0"
         style="fill:none;stroke:#76797b;stroke-opacity:1;stroke-width:7.48421;stroke-linecap:butt;stroke-linejoin:round;stroke-miterlimit:10;stroke-dasharray:none"
         id="path134" /><path
         d="m 2091.67,2068.91 21.79,0"
         style="fill:none;stroke:#76797b;stroke-opacity:1;stroke-width:7.48421;stroke-linecap:butt;stroke-linejoin:round;stroke-miterlimit:10;stroke-dasharray:none"
         id="path136" /></g></g></svg>