<?xml version="1.0" encoding="UTF-8" standalone="no"?>
<!-- Created with Inkscape (http://www.inkscape.org/) -->

<svg
   xmlns:dc="http://purl.org/dc/elements/1.1/"
   xmlns:cc="http://creativecommons.org/ns#"
   xmlns:rdf="http://www.w3.org/1999/02/22-rdf-syntax-ns#"
   xmlns:svg="http://www.w3.org/2000/svg"
   xmlns="http://www.w3.org/2000/svg"
   xmlns:sodipodi="http://sodipodi.sourceforge.net/DTD/sodipodi-0.dtd"
   xmlns:inkscape="http://www.inkscape.org/namespaces/inkscape"
   id="svg2"
   version="1.1"
   inkscape:version="0.48.3.1 r9886"
   width="504.92123"
   height="200.83464"
   xml:space="preserve"
   sodipodi:docname="number_nodes.svg"><metadata
     id="metadata8"><rdf:RDF><cc:Work
         rdf:about=""><dc:format>image/svg+xml</dc:format><dc:type
           rdf:resource="http://purl.org/dc/dcmitype/StillImage" /><dc:title /></cc:Work></rdf:RDF></metadata><defs
     id="defs6"><clipPath
       clipPathUnits="userSpaceOnUse"
       id="clipPath18"><path
         d="m 0,1548.89 4000,0 0,-1529.9994 -4000,0 0,1529.9994 z"
         id="path20"
         inkscape:connector-curvature="0" /></clipPath><clipPath
       clipPathUnits="userSpaceOnUse"
       id="clipPath28"><path
         d="m 0.820312,1446.59 1983.319688,0 0,-1426.0509 -1983.319688,0 0,1426.0509 z"
         id="path30"
         inkscape:connector-curvature="0" /></clipPath><clipPath
       clipPathUnits="userSpaceOnUse"
       id="clipPath58"><path
         d="m 281.988,1377.09 1615.042,0 0,-1032.621 -1615.042,0 0,1032.621 z"
         id="path60"
         inkscape:connector-curvature="0" /></clipPath><clipPath
       clipPathUnits="userSpaceOnUse"
       id="clipPath70"><path
         d="m 1.12891,1446.59 1982.62109,0 0,-1426.0509 -1982.62109,0 0,1426.0509 z"
         id="path72"
         inkscape:connector-curvature="0" /></clipPath><clipPath
       clipPathUnits="userSpaceOnUse"
       id="clipPath114"><path
         d="m 1.12891,18.8906 1982.61999,0 0,1427.7 -1982.61999,0 0,-1427.7 z"
         id="path116"
         inkscape:connector-curvature="0" /></clipPath><clipPath
       clipPathUnits="userSpaceOnUse"
       id="clipPath126"><path
         d="m 2017.7,20.5312 1982.3,0 0,1428.63 -1982.3,0 0,-1428.63 z"
         id="path128"
         inkscape:connector-curvature="0" /></clipPath><clipPath
       clipPathUnits="userSpaceOnUse"
       id="clipPath136"><path
         d="m 2018.24,20.5312 1981.76,0 0,1428.63 -1981.76,0 0,-1428.63 z"
         id="path138"
         inkscape:connector-curvature="0" /></clipPath><clipPath
       clipPathUnits="userSpaceOnUse"
       id="clipPath166"><path
         d="m 2274.88,1378.93 1643.09,0 0,-1068.551 -1643.09,0 0,1068.551 z"
         id="path168"
         inkscape:connector-curvature="0" /></clipPath><clipPath
       clipPathUnits="userSpaceOnUse"
       id="clipPath178"><path
         d="m 2018.24,20.5312 1981.76,0 0,1428.63 -1981.76,0 0,-1428.63 z"
         id="path180"
         inkscape:connector-curvature="0" /></clipPath><clipPath
       clipPathUnits="userSpaceOnUse"
       id="clipPath226"><path
         d="m 2017.7,20.5312 1982.3,0 0,1428.63 -1982.3,0 0,-1428.63 z"
         id="path228"
         inkscape:connector-curvature="0" /></clipPath><clipPath
       clipPathUnits="userSpaceOnUse"
       id="clipPath238"><path
         d="m 2017.7,18.8906 1982.3,0 0,1430.27 -1982.3,0 0,-1430.27 z"
         id="path240"
         inkscape:connector-curvature="0" /></clipPath><clipPath
       clipPathUnits="userSpaceOnUse"
       id="clipPath254"><path
         d="m 2017.7,1449.16 1989.1,0 0,-1434.8788 -1989.1,0 0,1434.8788 z"
         id="path256"
         inkscape:connector-curvature="0" /></clipPath></defs><sodipodi:namedview
     pagecolor="#ffffff"
     bordercolor="#666666"
     borderopacity="1"
     objecttolerance="10"
     gridtolerance="10"
     guidetolerance="10"
     inkscape:pageopacity="0"
     inkscape:pageshadow="2"
     inkscape:window-width="1855"
     inkscape:window-height="1056"
     id="namedview4"
     showgrid="false"
     units="mm"
     inkscape:zoom="2.8616351"
     inkscape:cx="250.625"
     inkscape:cy="96.875"
     inkscape:window-x="65"
     inkscape:window-y="24"
     inkscape:window-maximized="1"
     inkscape:current-layer="g10" /><g
     id="g10"
     inkscape:groupmode="layer"
     inkscape:label="ink_ext_XXXXXX"
     transform="matrix(1.25,0,0,-1.25,0,200.8347)"><g
       id="g12"
       transform="matrix(0.1,0,0,0.1,1.6,1.6)"><g
   id="g14"><g
     id="g16"
     clip-path="url(#clipPath18)"><path
       d="m 1.12891,16.8203 1982.61999,0 0,1429.77 -1982.61999,0 0,-1429.77 z"
       style="fill:#ffffff;fill-opacity:1;fill-rule:evenodd;stroke:none"
       id="path22"
       inkscape:connector-curvature="0" /></g></g><g
   id="g24"><g
     id="g26"
     clip-path="url(#clipPath28)"><path
       d="m 281.988,349.43 1615.04,0 0,1022.7 -1615.04,0 0,-1022.7 z"
       style="fill:#ffffff;fill-opacity:1;fill-rule:evenodd;stroke:none"
       id="path32"
       inkscape:connector-curvature="0" /><g
       id="g34"
       transform="scale(0.937189,1.06281)"><path
         d="m 303.101,1293.39 1718.859,0 m -1718.859,-121.47 1718.859,0 m -1718.859,-121.43 1718.859,0 M 303.101,929.018 l 1718.859,0 M 303.101,812.251 l 1718.859,0 M 303.101,690.809 l 1718.859,0 M 303.101,569.341 l 1718.859,0 M 303.101,447.909 l 1718.859,0"
         style="fill:none;stroke:#76797b;stroke-width:5.08297014;stroke-linecap:butt;stroke-linejoin:round;stroke-miterlimit:10;stroke-opacity:1;stroke-dasharray:none"
         id="path36"
         inkscape:connector-curvature="0" /></g><g
       id="g38"
       transform="scale(0.937189,1.06281)"><path
         d="m 303.101,326.437 0,966.953"
         style="fill:none;stroke:#76797b;stroke-width:5.08297014;stroke-linecap:butt;stroke-linejoin:round;stroke-miterlimit:10;stroke-opacity:1;stroke-dasharray:none"
         id="path40"
         inkscape:connector-curvature="0" /></g><g
       id="g42"
       transform="scale(0.937189,1.06281)"><path
         d="m 281.093,1293.39 22.008,0 m -22.008,-121.47 22.008,0 m -22.008,-121.43 22.008,0 m -22.008,-121.472 22.008,0 m -22.008,-116.767 22.008,0 m -22.008,-121.442 22.008,0 m -22.008,-121.468 22.008,0 m -22.008,-121.432 22.008,0 m -22.008,-121.472 22.008,0"
         style="fill:none;stroke:#76797b;stroke-width:5.08297014;stroke-linecap:butt;stroke-linejoin:round;stroke-miterlimit:10;stroke-opacity:1;stroke-dasharray:none"
         id="path44"
         inkscape:connector-curvature="0" /></g><g
       id="g46"
       transform="scale(0.937189,1.06281)"><path
         d="m 303.101,326.437 1718.859,0"
         style="fill:none;stroke:#76797b;stroke-width:5.08297014;stroke-linecap:butt;stroke-linejoin:round;stroke-miterlimit:10;stroke-opacity:1;stroke-dasharray:none"
         id="path48"
         inkscape:connector-curvature="0" /></g><g
       id="g50"
       transform="scale(0.937189,1.06281)"><path
         d="m 2021.96,326.437 0,-18.678 m -343.78,18.678 0,-18.678 m -343.77,18.678 0,-18.678 m -343.744,18.678 0,-18.678 m -343.789,18.678 0,-18.678 m -343.776,18.678 0,-18.678"
         style="fill:none;stroke:#76797b;stroke-width:5.08297014;stroke-linecap:butt;stroke-linejoin:round;stroke-miterlimit:10;stroke-opacity:1;stroke-dasharray:none"
         id="path52"
         inkscape:connector-curvature="0" /></g></g></g><g
   id="g54"><g
     id="g56"
     clip-path="url(#clipPath58)"><g
       id="g62"
       transform="scale(0.937189,1.06281)"><path
         d="m 576.395,608.811 c 80.327,164.253 172.149,405.729 241.005,492.689 56.011,70.75 130.077,21.91 172.099,29.04 51.641,8.78 80.351,18.45 137.711,23.7 57.4,5.26 143.46,22.35 206.57,7.79 63.1,-14.52 103.28,-35.94 172.09,-94.96 68.86,-59.07 160.68,-172.828 241,-259.229"
         style="fill:none;stroke:#4f7cc2;stroke-width:15.24890041;stroke-linecap:round;stroke-linejoin:round;stroke-miterlimit:10;stroke-opacity:1;stroke-dasharray:none"
         id="path64"
         inkscape:connector-curvature="0" /></g></g></g><g
   id="g66"><g
     id="g68"
     clip-path="url(#clipPath70)"><g
       id="g74"
       transform="scale(10,10)"><text
   transform="matrix(0.831992,0,0,-1,20.3102,32.8379)"
   id="text76"><tspan
     style="font-size:6.45388985px;font-variant:normal;font-weight:normal;writing-mode:lr-tb;fill:#050606;fill-opacity:1;fill-rule:nonzero;stroke:none;font-family:DejaVu Sans;-inkscape-font-specification:DejaVuSans"
     x="0"
     y="0"
     id="tspan78">0</tspan><tspan
     style="font-size:6.45388985px;font-variant:normal;font-weight:normal;writing-mode:lr-tb;fill:#050606;fill-opacity:1;fill-rule:nonzero;stroke:none;font-family:DejaVu Sans;-inkscape-font-specification:DejaVuSans"
     x="0"
     y="-12.8008"
     id="tspan80">2</tspan><tspan
     style="font-size:6.45388985px;font-variant:normal;font-weight:normal;writing-mode:lr-tb;fill:#050606;fill-opacity:1;fill-rule:nonzero;stroke:none;font-family:DejaVu Sans;-inkscape-font-specification:DejaVuSans"
     x="0"
     y="-25.605499"
     id="tspan82">4</tspan><tspan
     style="font-size:6.45388985px;font-variant:normal;font-weight:normal;writing-mode:lr-tb;fill:#050606;fill-opacity:1;fill-rule:nonzero;stroke:none;font-family:DejaVu Sans;-inkscape-font-specification:DejaVuSans"
     x="0"
     y="-38.4063"
     id="tspan84">6</tspan><tspan
     style="font-size:6.45388985px;font-variant:normal;font-weight:normal;writing-mode:lr-tb;fill:#050606;fill-opacity:1;fill-rule:nonzero;stroke:none;font-family:DejaVu Sans;-inkscape-font-specification:DejaVuSans"
     x="0"
     y="-51.2118"
     id="tspan86">8</tspan><tspan
     style="font-size:6.45388985px;font-variant:normal;font-weight:normal;writing-mode:lr-tb;fill:#050606;fill-opacity:1;fill-rule:nonzero;stroke:none;font-family:DejaVu Sans;-inkscape-font-specification:DejaVuSans"
     x="-3.36025 0.10790978"
     y="-64.012199"
     sodipodi:role="line"
     id="tspan88">10</tspan><tspan
     style="font-size:6.45388985px;font-variant:normal;font-weight:normal;writing-mode:lr-tb;fill:#050606;fill-opacity:1;fill-rule:nonzero;stroke:none;font-family:DejaVu Sans;-inkscape-font-specification:DejaVuSans"
     x="-3.36025 0.10790978"
     y="-76.817703"
     sodipodi:role="line"
     id="tspan90">12</tspan><tspan
     style="font-size:6.45388985px;font-variant:normal;font-weight:normal;writing-mode:lr-tb;fill:#050606;fill-opacity:1;fill-rule:nonzero;stroke:none;font-family:DejaVu Sans;-inkscape-font-specification:DejaVuSans"
     x="-3.36025 0.10790978"
     y="-89.628601"
     sodipodi:role="line"
     id="tspan92">14</tspan><tspan
     style="font-size:6.45388985px;font-variant:normal;font-weight:normal;writing-mode:lr-tb;fill:#050606;fill-opacity:1;fill-rule:nonzero;stroke:none;font-family:DejaVu Sans;-inkscape-font-specification:DejaVuSans"
     x="-3.36025 0.10790978"
     y="-102.4286"
     sodipodi:role="line"
     id="tspan94">16</tspan><tspan
     style="font-size:6.45388985px;font-variant:normal;font-weight:normal;writing-mode:lr-tb;fill:#050606;fill-opacity:1;fill-rule:nonzero;stroke:none;font-family:DejaVu Sans;-inkscape-font-specification:DejaVuSans"
     x="7.8172498 44.916599 48.384754 83.687271 87.155434 122.45892 125.92661 161.22913 164.69681 199.99933 203.46748"
     y="8.6134005"
     sodipodi:role="line"
     id="tspan96">01020304050</tspan></text>

<text
   transform="matrix(1.4143919e-7,1,0.83199521,-1.8303895e-7,13.4723,39.9598)"
   id="text98"><tspan
     style="font-size:9.43257809px;font-variant:normal;font-weight:normal;writing-mode:lr-tb;fill:#050606;fill-opacity:1;fill-rule:nonzero;stroke:none;font-family:Times New Roman;-inkscape-font-specification:TimesNewRomanPSMT"
     x="0 3.1410487 7.857338 12.573627 16.763346 23.837563 28.553852 32.743179 35.367031 40.083321 46.630848 49.771896 54.733223 60.184128 69.090248"
     y="0"
     sodipodi:role="line"
     id="tspan100">Indexvalue(hPa)</tspan></text>

<text
   transform="matrix(1.4143801e-7,1,0.83198829,-1.8303742e-7,10.982,104.675)"
   id="text102"><tspan
     style="font-size:5.95746374px;font-variant:normal;font-weight:normal;writing-mode:lr-tb;fill:#050606;fill-opacity:1;fill-rule:nonzero;stroke:none;font-family:Times New Roman;-inkscape-font-specification:TimesNewRomanPSMT"
     x="0 1.9894018"
     y="0"
     sodipodi:role="line"
     id="tspan104">-1</tspan></text>

<text
   transform="matrix(0.831995,0,0,-1,76.2441,12.1707)"
   id="text106"><tspan
     style="font-size:9.43258953px;font-variant:normal;font-weight:normal;writing-mode:lr-tb;fill:#050606;fill-opacity:1;fill-rule:nonzero;stroke:none;font-family:Times New Roman;-inkscape-font-specification:TimesNewRomanPSMT"
     x="0 6.9404998 11.90269 19.345915 24.307636 28.289057 33.251167 38.21241 42.683891 47.646072 52.60685 57.568092 61.549992 67.000359 69.981163 74.942879"
     y="0"
     sodipodi:role="line"
     id="tspan108">Numberofnodes(n)</tspan></text>

</g></g></g><g
   id="g110"><g
     id="g112"
     clip-path="url(#clipPath114)"><g
       id="g118"
       transform="scale(0.937189,1.06281)"><path
         d="m 3.41363,1358.77 2115.49637,0 0,-1345.296 -2115.49637,0 0,1345.296 z"
         style="fill:none;stroke:#76797b;stroke-width:5.08804989;stroke-linecap:butt;stroke-linejoin:round;stroke-miterlimit:10;stroke-opacity:1;stroke-dasharray:none"
         id="path120"
         inkscape:connector-curvature="0" /></g></g></g><g
   id="g122"><g
     id="g124"
     clip-path="url(#clipPath126)"><path
       d="m 2018.24,4.35938 1986.68,0 0,1444.80002 -1986.68,0 0,-1444.80002 z"
       style="fill:#ffffff;fill-opacity:1;fill-rule:evenodd;stroke:none"
       id="path130"
       inkscape:connector-curvature="0" /></g></g><g
   id="g132"><g
     id="g134"
     clip-path="url(#clipPath136)"><path
       d="m 2278.98,315.383 1638.98,0 0,1058.55 -1638.98,0 0,-1058.55 z"
       style="fill:#ffffff;fill-opacity:1;fill-rule:evenodd;stroke:none"
       id="path140"
       inkscape:connector-curvature="0" /><g
       id="g142"
       transform="scale(1.02195,0.978053)"><path
         d="m 2228.01,1407.32 1603.79,0 m -1603.79,-107.72 1603.79,0 m -1603.79,-112.87 1603.79,0 m -1603.79,-107.67 1603.79,0 m -1603.79,-107.714 1603.79,0 M 2228.01,863.63 l 1603.79,0 m -1603.79,-107.755 1603.79,0 m -1603.79,-107.716 1603.79,0 m -1603.79,-112.832 1603.79,0 m -1603.79,-107.716 1603.79,0"
         style="fill:none;stroke:#76797b;stroke-width:5.12933016;stroke-linecap:butt;stroke-linejoin:round;stroke-miterlimit:10;stroke-opacity:1;stroke-dasharray:none"
         id="path144"
         inkscape:connector-curvature="0" /></g><g
       id="g146"
       transform="scale(1.02195,0.978053)"><path
         d="m 2228.01,319.896 0,1087.424"
         style="fill:none;stroke:#76797b;stroke-width:5.12933016;stroke-linecap:butt;stroke-linejoin:round;stroke-miterlimit:10;stroke-opacity:1;stroke-dasharray:none"
         id="path148"
         inkscape:connector-curvature="0" /></g><g
       id="g150"
       transform="scale(1.02195,0.978053)"><path
         d="m 2211.81,1407.32 16.2,0 m -16.2,-107.72 16.2,0 m -16.2,-112.87 16.2,0 m -16.2,-107.67 16.2,0 m -16.2,-107.714 16.2,0 m -16.2,-107.716 16.2,0 m -16.2,-107.755 16.2,0 m -16.2,-107.716 16.2,0 m -16.2,-112.832 16.2,0 m -16.2,-107.716 16.2,0 m -16.2,-107.715 16.2,0"
         style="fill:none;stroke:#76797b;stroke-width:5.12933016;stroke-linecap:butt;stroke-linejoin:round;stroke-miterlimit:10;stroke-opacity:1;stroke-dasharray:none"
         id="path152"
         inkscape:connector-curvature="0" /></g><g
       id="g154"
       transform="scale(1.02195,0.978053)"><path
         d="m 2228.01,319.896 1603.79,0"
         style="fill:none;stroke:#76797b;stroke-width:5.12933016;stroke-linecap:butt;stroke-linejoin:round;stroke-miterlimit:10;stroke-opacity:1;stroke-dasharray:none"
         id="path156"
         inkscape:connector-curvature="0" /></g><g
       id="g158"
       transform="scale(1.02195,0.978053)"><path
         d="m 3831.8,319.896 0,-20.493 m -319.93,20.493 0,-20.493 m -319.94,20.493 0,-20.493 m -319.96,20.493 0,-20.493 m -324.02,20.493 0,-20.493 m -319.94,20.493 0,-20.493"
         style="fill:none;stroke:#76797b;stroke-width:5.12933016;stroke-linecap:butt;stroke-linejoin:round;stroke-miterlimit:10;stroke-opacity:1;stroke-dasharray:none"
         id="path160"
         inkscape:connector-curvature="0" /></g></g></g><g
   id="g162"><g
     id="g164"
     clip-path="url(#clipPath166)"><g
       id="g170"
       transform="scale(1.02195,0.978053)"><path
         d="m 2485.8,646.877 c 74.8,137.111 160.27,302.219 224.37,411.293 64.14,109.08 112.19,199.97 160.27,243.1 48.09,43.06 74.8,11.55 128.24,15.43 53.44,3.91 133.56,31.62 192.34,7.94 58.75,-23.64 96.17,-71.76 160.23,-149.85 64.14,-78.12 149.61,-212.554 224.41,-318.832"
         style="fill:none;stroke:#4f7cc2;stroke-width:15.38790035;stroke-linecap:round;stroke-linejoin:round;stroke-miterlimit:10;stroke-opacity:1;stroke-dasharray:none"
         id="path172"
         inkscape:connector-curvature="0" /></g></g></g><g
   id="g174"><g
     id="g176"
     clip-path="url(#clipPath178)"><g
       id="g182"
       transform="scale(10,10)"><text
   transform="matrix(0.82501,0,0,-1,219.911,29.3121)"
   id="text184"><tspan
     style="font-size:6.52178001px;font-variant:normal;font-weight:normal;writing-mode:lr-tb;fill:#050606;fill-opacity:1;fill-rule:nonzero;stroke:none;font-family:DejaVu Sans;-inkscape-font-specification:DejaVuSans"
     x="0"
     y="0"
     id="tspan186">0</tspan><tspan
     style="font-size:6.52178001px;font-variant:normal;font-weight:normal;writing-mode:lr-tb;fill:#050606;fill-opacity:1;fill-rule:nonzero;stroke:none;font-family:DejaVu Sans;-inkscape-font-specification:DejaVuSans"
     x="0"
     y="-10.6094"
     id="tspan188">5</tspan><tspan
     style="font-size:6.52178001px;font-variant:normal;font-weight:normal;writing-mode:lr-tb;fill:#050606;fill-opacity:1;fill-rule:nonzero;stroke:none;font-family:DejaVu Sans;-inkscape-font-specification:DejaVuSans"
     x="-3.3891599 0.11260021"
     y="-21.224199"
     sodipodi:role="line"
     id="tspan190">10</tspan><tspan
     style="font-size:6.52178001px;font-variant:normal;font-weight:normal;writing-mode:lr-tb;fill:#050606;fill-opacity:1;fill-rule:nonzero;stroke:none;font-family:DejaVu Sans;-inkscape-font-specification:DejaVuSans"
     x="-3.3891599 0.11260021"
     y="-31.8344"
     sodipodi:role="line"
     id="tspan192">15</tspan><tspan
     style="font-size:6.52178001px;font-variant:normal;font-weight:normal;writing-mode:lr-tb;fill:#050606;fill-opacity:1;fill-rule:nonzero;stroke:none;font-family:DejaVu Sans;-inkscape-font-specification:DejaVuSans"
     x="-3.3891599 0.11260021"
     y="-42.444599"
     sodipodi:role="line"
     id="tspan194">20</tspan><tspan
     style="font-size:6.52178001px;font-variant:normal;font-weight:normal;writing-mode:lr-tb;fill:#050606;fill-opacity:1;fill-rule:nonzero;stroke:none;font-family:DejaVu Sans;-inkscape-font-specification:DejaVuSans"
     x="-3.3891599 0.11260021"
     y="-53.054001"
     sodipodi:role="line"
     id="tspan196">25</tspan><tspan
     style="font-size:6.52178001px;font-variant:normal;font-weight:normal;writing-mode:lr-tb;fill:#050606;fill-opacity:1;fill-rule:nonzero;stroke:none;font-family:DejaVu Sans;-inkscape-font-specification:DejaVuSans"
     x="-3.3891599 0.11260021"
     y="-63.6688"
     sodipodi:role="line"
     id="tspan198">30</tspan><tspan
     style="font-size:6.52178001px;font-variant:normal;font-weight:normal;writing-mode:lr-tb;fill:#050606;fill-opacity:1;fill-rule:nonzero;stroke:none;font-family:DejaVu Sans;-inkscape-font-specification:DejaVuSans"
     x="-3.3891599 0.11260021"
     y="-74.278999"
     sodipodi:role="line"
     id="tspan200">35</tspan><tspan
     style="font-size:6.52178001px;font-variant:normal;font-weight:normal;writing-mode:lr-tb;fill:#050606;fill-opacity:1;fill-rule:nonzero;stroke:none;font-family:DejaVu Sans;-inkscape-font-specification:DejaVuSans"
     x="-3.3891599 0.11260021"
     y="-84.888397"
     sodipodi:role="line"
     id="tspan202">40</tspan><tspan
     style="font-size:6.52178001px;font-variant:normal;font-weight:normal;writing-mode:lr-tb;fill:#050606;fill-opacity:1;fill-rule:nonzero;stroke:none;font-family:DejaVu Sans;-inkscape-font-specification:DejaVuSans"
     x="-3.3891599 0.11260021"
     y="-95.498199"
     sodipodi:role="line"
     id="tspan204">45</tspan><tspan
     style="font-size:6.52178001px;font-variant:normal;font-weight:normal;writing-mode:lr-tb;fill:#050606;fill-opacity:1;fill-rule:nonzero;stroke:none;font-family:DejaVu Sans;-inkscape-font-specification:DejaVuSans"
     x="-3.3891599 0.11260021"
     y="-106.1134"
     sodipodi:role="line"
     id="tspan206">50</tspan><tspan
     style="font-size:6.52178001px;font-variant:normal;font-weight:normal;writing-mode:lr-tb;fill:#050606;fill-opacity:1;fill-rule:nonzero;stroke:none;font-family:DejaVu Sans;-inkscape-font-specification:DejaVuSans"
     x="7.8990402 45.903671 49.404957 85.599464 89.1017 125.2953 128.79753 164.99203 168.49428 204.68173 208.1835"
     y="8.6976004"
     sodipodi:role="line"
     id="tspan208">01020304050</tspan></text>

<text
   transform="matrix(0.856609,0,0,-1,271.563,11.0332)"
   id="text210"><tspan
     style="font-size:10.08119965px;font-variant:normal;font-weight:normal;writing-mode:lr-tb;fill:#050606;fill-opacity:1;fill-rule:nonzero;stroke:none;font-family:Times New Roman;-inkscape-font-specification:TimesNewRomanPSMT"
     x="0 7.4153738 12.718809 20.6761 25.978622 30.235218 35.538574 40.840641 45.619583 50.923019 56.225086 61.527611 65.78466 71.60817 74.794258 80.096329"
     y="0"
     sodipodi:role="line"
     id="tspan212">Numberofnodes(n)</tspan></text>

<text
   transform="matrix(1.45624e-7,1,0.85661176,-1.7988847e-7,214.138,42.4902)"
   id="text214"><tspan
     style="font-size:10.0811367px;font-variant:normal;font-weight:normal;writing-mode:lr-tb;fill:#050606;fill-opacity:1;fill-rule:nonzero;stroke:none;font-family:Times New Roman;-inkscape-font-specification:TimesNewRomanPSMT"
     x="0 3.3570185 8.3975868 13.438155 17.917036 25.477968 30.518538 34.99781 37.80341 42.843979 49.843563 53.200581 58.503315 64.327164 73.847061"
     y="0"
     sodipodi:role="line"
     id="tspan216">Indexvalue(hPa)</tspan></text>

<text
   transform="matrix(1.4562275e-7,1,0.85660442,-1.7988693e-7,211.272,111.126)"
   id="text218"><tspan
     style="font-size:6.36709309px;font-variant:normal;font-weight:normal;writing-mode:lr-tb;fill:#050606;fill-opacity:1;fill-rule:nonzero;stroke:none;font-family:Times New Roman;-inkscape-font-specification:TimesNewRomanPSMT"
     x="0 2.1265163"
     y="0"
     sodipodi:role="line"
     id="tspan220">-1</tspan></text>

</g></g></g><g
   id="g222"><g
     id="g224"
     clip-path="url(#clipPath226)"><g
       id="g230"
       transform="scale(1.02195,0.978053)"><path
         d="m 1976.92,1479.13 1943.98,0 0,-1477.26485 -1943.98,0 0,1477.26485 z"
         style="fill:none;stroke:#76797b;stroke-width:5.13444996;stroke-linecap:butt;stroke-linejoin:round;stroke-miterlimit:10;stroke-opacity:1;stroke-dasharray:none"
         id="path232"
         inkscape:connector-curvature="0" /></g></g></g><g
   id="g234"><g
     id="g236"
     clip-path="url(#clipPath238)"><path
       d="m 2020.04,17.9922 1982.62,0 0,1429.77 -1982.62,0 0,-1429.77 z"
       style="fill:none;stroke:#76797b;stroke-width:5.07801008;stroke-linecap:butt;stroke-linejoin:round;stroke-miterlimit:10;stroke-opacity:1;stroke-dasharray:none"
       id="path242"
       inkscape:connector-curvature="0" /><g
       id="g244"
       transform="scale(10,10)"><text
   transform="matrix(1,0,0,-1,205.818,148.277)"
   id="text246"><tspan
     style="font-size:11.19999981px;font-variant:normal;font-weight:normal;writing-mode:lr-tb;fill:#000000;fill-opacity:1;fill-rule:nonzero;stroke:none;font-family:Times New Roman;-inkscape-font-specification:TimesNewRomanPSMT"
     x="0 5.5999999"
     y="0"
     sodipodi:role="line"
     id="tspan248">b)</tspan></text>

</g></g><path
     d="m 7.49442,12.746241 1979.56778,0 0,1429.770059 -1979.56778,0 0,-1429.770059 z"
     style="fill:none;stroke:#76797b;stroke-width:5.07410002;stroke-linecap:butt;stroke-linejoin:round;stroke-miterlimit:10;stroke-opacity:1;stroke-dasharray:none"
     id="path242-7"
     inkscape:connector-curvature="0" /></g><g
   id="g250"><g
     id="g252"
     clip-path="url(#clipPath254)"><g
       id="g258"
       transform="scale(10,10)"><text
   transform="matrix(1,0,0,-0.92136177,208.123,147.724)"
   id="text260"><tspan
     style="font-size:11.20005226px;font-variant:normal;font-weight:normal;writing-mode:lr-tb;fill:#000000;fill-opacity:1;fill-rule:nonzero;stroke:none;font-family:Times New Roman;-inkscape-font-specification:TimesNewRomanPSMT"
     x="0 5.6000261"
     y="0"
     sodipodi:role="line"
     id="tspan262">b)</tspan></text>

</g></g></g><path
   d="m 2020.3297,15.541854 1982.62,0 0,1429.770046 -1982.62,0 0,-1429.770046 z"
   style="fill:none;stroke:#76797b;stroke-width:5.07801008000000031;stroke-linecap:butt;stroke-linejoin:round;stroke-miterlimit:10;stroke-opacity:1;stroke-dasharray:none"
   id="path242-8"
   inkscape:connector-curvature="0" />
<text
   xml:space="preserve"
   style="font-size:112px;font-style:normal;font-variant:normal;font-weight:normal;font-stretch:normal;text-align:start;line-height:125%;letter-spacing:0px;word-spacing:0px;writing-mode:lr-tb;text-anchor:start;fill:#000000;fill-opacity:1;stroke:none;font-family:Times New Roman;-inkscape-font-specification:'Times New Roman,'"
   x="2049.0022"
   y="-1485.2401"
   id="text3270"
   sodipodi:linespacing="125%"
   transform="scale(1,-1)"><tspan
     sodipodi:role="line"
     id="tspan3272"
     x="2049.0022"
     y="-1485.2401">b)</tspan></text>

<text
   xml:space="preserve"
   style="font-size:112px;font-style:normal;font-variant:normal;font-weight:normal;font-stretch:normal;text-align:start;line-height:125%;letter-spacing:0px;word-spacing:0px;writing-mode:lr-tb;text-anchor:start;fill:#000000;fill-opacity:1;stroke:none;font-family:Times New Roman;-inkscape-font-specification:'Times New Roman,'"
   x="-6.3648376"
   y="-1574.2247"
   id="text3274"
   sodipodi:linespacing="125%"
   transform="scale(1,-1)"><tspan
     sodipodi:role="line"
     id="tspan3276"
     x="-6.3648376"
     y="-1574.2247">   </tspan></text>

<text
   xml:space="preserve"
   style="font-size:112px;font-style:normal;font-variant:normal;font-weight:normal;font-stretch:normal;text-align:start;line-height:125%;letter-spacing:0px;word-spacing:0px;writing-mode:lr-tb;text-anchor:start;fill:#000000;fill-opacity:1;stroke:none;font-family:Times New Roman;-inkscape-font-specification:'Times New Roman,'"
   x="3953.7144"
   y="-7.6136627"
   id="text3274-5"
   sodipodi:linespacing="125%"
   transform="scale(1,-1)"><tspan
     sodipodi:role="line"
     id="tspan3276-0"
     x="3953.7144"
     y="-7.6136627">   </tspan></text>

</g><text
       xml:space="preserve"
       style="font-size:112px;font-style:normal;font-variant:normal;font-weight:normal;font-stretch:normal;text-align:start;line-height:125%;letter-spacing:0px;word-spacing:0px;writing-mode:lr-tb;text-anchor:start;fill:#000000;fill-opacity:1;stroke:none;font-family:Times New Roman;-inkscape-font-specification:'Times New Roman,'"
       x="28.254944"
       y="-1477.6268"
       id="text3266"
       sodipodi:linespacing="125%"
       transform="matrix(0.1,0,0,-0.1,1.6,1.6)"><tspan
         sodipodi:role="line"
         id="tspan3268"
         x="28.254944"
         y="-1477.6268">a)</tspan></text>
</g></svg>