<?xml version="1.0" encoding="UTF-8" standalone="no"?>
<!-- Created with Inkscape (http://www.inkscape.org/) -->

<svg
   xmlns:dc="http://purl.org/dc/elements/1.1/"
   xmlns:cc="http://creativecommons.org/ns#"
   xmlns:rdf="http://www.w3.org/1999/02/22-rdf-syntax-ns#"
   xmlns:svg="http://www.w3.org/2000/svg"
   xmlns="http://www.w3.org/2000/svg"
   xmlns:sodipodi="http://sodipodi.sourceforge.net/DTD/sodipodi-0.dtd"
   xmlns:inkscape="http://www.inkscape.org/namespaces/inkscape"
   id="svg2"
   version="1.1"
   inkscape:version="0.48.3.1 r9886"
   width="391.25"
   height="246.25"
   xml:space="preserve"
   sodipodi:docname="Error_decay.eps"><metadata
     id="metadata8"><rdf:RDF><cc:Work
         rdf:about=""><dc:format>image/svg+xml</dc:format><dc:type
           rdf:resource="http://purl.org/dc/dcmitype/StillImage" /><dc:title></dc:title></cc:Work></rdf:RDF></metadata><defs
     id="defs6"><clipPath
       clipPathUnits="userSpaceOnUse"
       id="clipPath18"><path
         d="m 0,0 3118.87,0 0,1970 L 0,1970 0,0 z"
         id="path20" /></clipPath><clipPath
       clipPathUnits="userSpaceOnUse"
       id="clipPath28"><path
         d="m 0,0 3113.75,0 0,1970 L 0,1970 0,0 z"
         id="path30" /></clipPath><clipPath
       clipPathUnits="userSpaceOnUse"
       id="clipPath66"><path
         d="m 370.621,1885.27 1625.469,0 0,-1537.77 -1625.469,0 0,1537.77 z"
         id="path68" /></clipPath><clipPath
       clipPathUnits="userSpaceOnUse"
       id="clipPath82"><path
         d="m 0,0 3113.28,0 0,1970 L 0,1970 0,0 z"
         id="path84" /></clipPath><clipPath
       clipPathUnits="userSpaceOnUse"
       id="clipPath160"><path
         d="m 0,1970 3113.28,0 0,-1970 L 0,0 0,1970 z"
         id="path162" /></clipPath></defs><sodipodi:namedview
     pagecolor="#ffffff"
     bordercolor="#666666"
     borderopacity="1"
     objecttolerance="10"
     gridtolerance="10"
     guidetolerance="10"
     inkscape:pageopacity="0"
     inkscape:pageshadow="2"
     inkscape:window-width="1855"
     inkscape:window-height="1056"
     id="namedview4"
     showgrid="false"
     inkscape:zoom="2.9688928"
     inkscape:cx="195.625"
     inkscape:cy="123.125"
     inkscape:window-x="65"
     inkscape:window-y="24"
     inkscape:window-maximized="1"
     inkscape:current-layer="g10" /><g
     id="g10"
     inkscape:groupmode="layer"
     inkscape:label="ink_ext_XXXXXX"
     transform="matrix(1.25,0,0,-1.25,0,246.25)"><g
       id="g12"
       transform="matrix(0.1,0,0,0.1,-0.53892145,-0.26946072)"><g
         id="g14"><g
           id="g16"
           clip-path="url(#clipPath18)"><path
             d="m 0,0 3113.28,0 0,1970 L 0,1970 0,0 z"
             style="fill:#ffffff;fill-opacity:1;fill-rule:evenodd;stroke:none"
             id="path22"
             inkscape:connector-curvature="0" /></g></g><g
         id="g24"><g
           id="g26"
           clip-path="url(#clipPath28)"><path
             d="m 370.621,353.52 1620.2,0 0,1525.66 -1620.2,0 0,-1525.66 z"
             style="fill:#ffffff;fill-opacity:1;fill-rule:evenodd;stroke:none"
             id="path32"
             inkscape:connector-curvature="0" /><g
             id="g34"
             transform="scale(1.05107,0.948931)"><path
               d="m 350.09,1983.52 1644.79,0 m -1644.79,-267.94 1644.79,0 M 350.09,1447.6 l 1644.79,0 m -1644.79,-274.33 1644.79,0 M 350.09,905.299 l 1644.79,0 M 350.09,637.354 l 1644.79,0"
               style="fill:none;stroke:#76797b;stroke-width:6.59035015;stroke-linecap:butt;stroke-linejoin:round;stroke-miterlimit:10;stroke-opacity:1;stroke-dasharray:none"
               id="path36"
               inkscape:connector-curvature="0" /></g><g
             id="g38"
             transform="scale(1.05107,0.948931)"><path
               d="m 1994.88,369.417 0,1614.103"
               style="fill:none;stroke:#76797b;stroke-width:6.59035015;stroke-linecap:butt;stroke-linejoin:round;stroke-miterlimit:10;stroke-opacity:1;stroke-dasharray:none"
               id="path40"
               inkscape:connector-curvature="0" /></g><g
             id="g42"
             transform="scale(1.05107,0.948931)"><path
               d="m 1971.73,1983.52 19.29,0 m -19.29,-229.7 19.29,0 m -19.29,-229.66 19.29,0 m -19.29,-236.07 19.29,0 m -19.29,-229.66 19.29,0 m -19.29,-229.664 19.29,0 m -19.29,-229.736 19.29,0 m -19.29,-229.613 19.29,0"
               style="fill:none;stroke:#76797b;stroke-width:6.24677992;stroke-linecap:butt;stroke-linejoin:round;stroke-miterlimit:10;stroke-opacity:1;stroke-dasharray:none"
               id="path44"
               inkscape:connector-curvature="0" /></g><g
             id="g46"
             transform="scale(1.05107,0.948931)"><path
               d="m 350.09,369.417 0,1614.103"
               style="fill:none;stroke:#76797b;stroke-width:6.38003016;stroke-linecap:butt;stroke-linejoin:round;stroke-miterlimit:10;stroke-opacity:1;stroke-dasharray:none"
               id="path48"
               inkscape:connector-curvature="0" /></g><g
             id="g50"
             transform="scale(1.05107,0.948931)"><path
               d="m 329.95,1983.52 20.14,0 m -20.14,-267.94 20.14,0 m -20.14,-267.98 20.14,0 m -20.14,-274.33 20.14,0 m -20.14,-267.971 20.14,0 m -20.14,-267.945 20.14,0 m -20.14,-267.937 20.14,0"
               style="fill:none;stroke:#76797b;stroke-width:6.38003016;stroke-linecap:butt;stroke-linejoin:round;stroke-miterlimit:10;stroke-opacity:1;stroke-dasharray:none"
               id="path52"
               inkscape:connector-curvature="0" /></g><g
             id="g54"
             transform="scale(1.05107,0.948931)"><path
               d="m 350.09,369.417 1644.79,0"
               style="fill:none;stroke:#76797b;stroke-width:6.59035015;stroke-linecap:butt;stroke-linejoin:round;stroke-miterlimit:10;stroke-opacity:1;stroke-dasharray:none"
               id="path56"
               inkscape:connector-curvature="0" /></g><g
             id="g58"
             transform="scale(1.05107,0.948931)"><path
               d="m 1995.55,369.417 0,-25.564 m -274.24,25.564 0,-25.564 m -274.27,25.564 0,-25.564 m -274.24,25.564 0,-25.564 m -274.24,25.564 0,-25.564 m -274.196,25.564 0,-25.564 m -274.274,25.564 0,-25.564"
               style="fill:none;stroke:#76797b;stroke-width:6.59161997;stroke-linecap:butt;stroke-linejoin:round;stroke-miterlimit:10;stroke-opacity:1;stroke-dasharray:none"
               id="path60"
               inkscape:connector-curvature="0" /></g></g></g><g
         id="g62"><g
           id="g64"
           clip-path="url(#clipPath66)"><g
             id="g70"
             transform="scale(1.05107,0.948931)"><path
               d="m 432.855,1658.04 c 45.675,-120.29 82.249,-262.55 137.097,-360.9 54.821,-98.34 137.099,-174.95 191.958,-229.12 54.859,-54.17 95.959,-73.109 137.1,-95.914 41.137,-22.806 64.001,-24.658 109.68,-40.881 45.7,-16.211 114.2,-41.655 164.49,-56.474 50.32,-14.815 82.28,-20.665 137.17,-32.52 54.81,-11.818 132.52,-28.449 191.95,-38.609 59.39,-10.134 109.68,-14.823 164.49,-22.187"
               style="fill:none;stroke:#4f7cc2;stroke-width:19.77099991;stroke-linecap:round;stroke-linejoin:round;stroke-miterlimit:10;stroke-opacity:1;stroke-dasharray:none"
               id="path72"
               inkscape:connector-curvature="0" /></g><g
             id="g74"
             transform="scale(1.05107,0.948931)"><path
               d="m 569.952,1395.57 c 63.963,2.06 137.099,61.13 191.958,6.25 54.859,-54.83 95.959,-229.04 137.1,-335.32 41.137,-106.332 64.001,-280.422 109.68,-302.56 45.7,-22.114 114.2,163.004 164.49,169.759 50.32,6.755 82.28,-123.828 137.17,-129.257 54.81,-5.434 132.52,120.534 191.95,96.737 59.39,-23.88 109.68,-159.798 164.49,-239.661"
               style="fill:none;stroke:#bb3e49;stroke-width:19.77099991;stroke-linecap:round;stroke-linejoin:round;stroke-miterlimit:10;stroke-opacity:1;stroke-dasharray:none"
               id="path76"
               inkscape:connector-curvature="0" /></g></g></g><g
         id="g78"><g
           id="g80"
           clip-path="url(#clipPath82)"><g
             id="g86"
             transform="scale(10,10)"><text
               transform="matrix(0.933178,0,0,-1,217.052,32.6645)"
               id="text88"><tspan
                 style="font-size:7.87041998px;font-variant:normal;font-weight:normal;writing-mode:lr-tb;fill:#050606;fill-opacity:1;fill-rule:nonzero;stroke:none;font-family:DejaVu Sans;-inkscape-font-specification:DejaVuSans"
                 x="0 2.425765"
                 y="0"
                 sodipodi:role="line"
                 id="tspan90">-4</tspan><tspan
                 style="font-size:7.87041998px;font-variant:normal;font-weight:normal;writing-mode:lr-tb;fill:#050606;fill-opacity:1;fill-rule:nonzero;stroke:none;font-family:DejaVu Sans;-inkscape-font-specification:DejaVuSans"
                 x="0 2.425765"
                 y="-21.8344"
                 sodipodi:role="line"
                 id="tspan92">-2</tspan><tspan
                 style="font-size:7.87041998px;font-variant:normal;font-weight:normal;writing-mode:lr-tb;fill:#050606;fill-opacity:1;fill-rule:nonzero;stroke:none;font-family:DejaVu Sans;-inkscape-font-specification:DejaVuSans"
                 x="0"
                 y="-43.6754"
                 id="tspan94">0</tspan><tspan
                 style="font-size:7.87041998px;font-variant:normal;font-weight:normal;writing-mode:lr-tb;fill:#050606;fill-opacity:1;fill-rule:nonzero;stroke:none;font-family:DejaVu Sans;-inkscape-font-specification:DejaVuSans"
                 x="0"
                 y="-65.523102"
                 id="tspan96">2</tspan><tspan
                 style="font-size:7.87041998px;font-variant:normal;font-weight:normal;writing-mode:lr-tb;fill:#050606;fill-opacity:1;fill-rule:nonzero;stroke:none;font-family:DejaVu Sans;-inkscape-font-specification:DejaVuSans"
                 x="0"
                 y="-87.364098"
                 id="tspan98">4</tspan><tspan
                 style="font-size:7.87041998px;font-variant:normal;font-weight:normal;writing-mode:lr-tb;fill:#050606;fill-opacity:1;fill-rule:nonzero;stroke:none;font-family:DejaVu Sans;-inkscape-font-specification:DejaVuSans"
                 x="0"
                 y="-109.1985"
                 id="tspan100">6</tspan><tspan
                 style="font-size:7.87041998px;font-variant:normal;font-weight:normal;writing-mode:lr-tb;fill:#050606;fill-opacity:1;fill-rule:nonzero;stroke:none;font-family:DejaVu Sans;-inkscape-font-specification:DejaVuSans"
                 x="0"
                 y="-131.03951"
                 id="tspan102">8</tspan><tspan
                 style="font-size:7.87041998px;font-variant:normal;font-weight:normal;writing-mode:lr-tb;fill:#050606;fill-opacity:1;fill-rule:nonzero;stroke:none;font-family:DejaVu Sans;-inkscape-font-specification:DejaVuSans"
                 x="0 4.2205615"
                 y="-152.88049"
                 sodipodi:role="line"
                 id="tspan104">10</tspan><tspan
                 style="font-size:7.87041998px;font-variant:normal;font-weight:normal;writing-mode:lr-tb;fill:#050606;fill-opacity:1;fill-rule:nonzero;stroke:none;font-family:DejaVu Sans;-inkscape-font-specification:DejaVuSans"
                 x="-208.48 -204.26027"
                 y="-0.00050000002"
                 sodipodi:role="line"
                 id="tspan106">40</tspan><tspan
                 style="font-size:7.87041998px;font-variant:normal;font-weight:normal;writing-mode:lr-tb;fill:#050606;fill-opacity:1;fill-rule:nonzero;stroke:none;font-family:DejaVu Sans;-inkscape-font-specification:DejaVuSans"
                 x="-208.48 -204.26027"
                 y="-25.4751"
                 sodipodi:role="line"
                 id="tspan108">50</tspan><tspan
                 style="font-size:7.87041998px;font-variant:normal;font-weight:normal;writing-mode:lr-tb;fill:#050606;fill-opacity:1;fill-rule:nonzero;stroke:none;font-family:DejaVu Sans;-inkscape-font-specification:DejaVuSans"
                 x="-208.48 -204.26027"
                 y="-50.962601"
                 sodipodi:role="line"
                 id="tspan110">60</tspan><tspan
                 style="font-size:7.87041998px;font-variant:normal;font-weight:normal;writing-mode:lr-tb;fill:#050606;fill-opacity:1;fill-rule:nonzero;stroke:none;font-family:DejaVu Sans;-inkscape-font-specification:DejaVuSans"
                 x="-208.48 -204.26027"
                 y="-76.437202"
                 sodipodi:role="line"
                 id="tspan112">70</tspan><tspan
                 style="font-size:7.87041998px;font-variant:normal;font-weight:normal;writing-mode:lr-tb;fill:#050606;fill-opacity:1;fill-rule:nonzero;stroke:none;font-family:DejaVu Sans;-inkscape-font-specification:DejaVuSans"
                 x="-208.48 -204.26027"
                 y="-101.9251"
                 sodipodi:role="line"
                 id="tspan114">80</tspan><tspan
                 style="font-size:7.87041998px;font-variant:normal;font-weight:normal;writing-mode:lr-tb;fill:#050606;fill-opacity:1;fill-rule:nonzero;stroke:none;font-family:DejaVu Sans;-inkscape-font-specification:DejaVuSans"
                 x="-208.48 -204.26027"
                 y="-127.3997"
                 sodipodi:role="line"
                 id="tspan116">90</tspan><tspan
                 style="font-size:7.87041998px;font-variant:normal;font-weight:normal;writing-mode:lr-tb;fill:#050606;fill-opacity:1;fill-rule:nonzero;stroke:none;font-family:DejaVu Sans;-inkscape-font-specification:DejaVuSans"
                 x="-212.56969 -208.35037 -204.12981"
                 y="-152.88091"
                 sodipodi:role="line"
                 id="tspan118">100</tspan><tspan
                 style="font-size:7.87041998px;font-variant:normal;font-weight:normal;writing-mode:lr-tb;fill:#050606;fill-opacity:1;fill-rule:nonzero;stroke:none;font-family:DejaVu Sans;-inkscape-font-specification:DejaVuSans"
                 x="-194.84929 -166.02443 -161.80386 -135.16957 -130.95068 -104.30797 -100.08782 -73.447632 -69.226654 -42.584415 -38.364689 -11.72324 -7.5030961"
                 y="10.4961"
                 sodipodi:role="line"
                 id="tspan120">0102030405060</tspan></text>
<text
               transform="matrix(0.874562,0,0,-1,96.8344,9.90117)"
               id="text122"><tspan
                 style="font-size:10.1960001px;font-variant:normal;font-weight:normal;writing-mode:lr-tb;fill:#050606;fill-opacity:1;fill-rule:nonzero;stroke:none;font-family:Times New Roman;-inkscape-font-specification:TimesNewRomanPSMT"
                 x="0 7.350625 12.448625 20.391819 25.489819 30.024897 35.969307 41.067307 47.021545 52.119545 57.217548 62.315548 66.852409"
                 y="0"
                 sodipodi:role="line"
                 id="tspan124">Numberofnodes</tspan></text>
</g><g
             id="g126"
             transform="scale(1.05107,0.948931)"><path
               d="m 2278.4974,1103.09 130.97,0"
               style="fill:none;stroke:#4f7cc2;stroke-width:19.13990021;stroke-linecap:round;stroke-linejoin:round;stroke-miterlimit:10;stroke-opacity:1;stroke-dasharray:none"
               id="path128"
               inkscape:connector-curvature="0" /></g><g
             id="g130"
             transform="scale(10,10)"><text
               transform="scale(0.9351802,-1.0693126)"
               id="text132"
               x="272.50897"
               y="-95.58757"
               style="font-size:11.22216225px"><tspan
                 style="font-size:7.36025143px;font-variant:normal;font-weight:normal;writing-mode:lr-tb;fill:#050606;fill-opacity:1;fill-rule:nonzero;stroke:none;font-family:Times New Roman;-inkscape-font-specification:TimesNewRomanPSMT"
                 x="272.50897 277.02936 280.99277 283.83508 287.80099 292.88525 296.84799 300.80188 304.767 307.03796 309.86075 313.82346"
                 y="-95.58757"
                 sodipodi:role="line"
                 id="tspan134">Decayoferror</tspan></text>
</g><g
             id="g136"
             transform="scale(1.05107,0.948931)"><path
               d="m 2278.4974,949.959 130.97,0"
               style="fill:none;stroke:#bb3e49;stroke-width:19.13990021;stroke-linecap:round;stroke-linejoin:round;stroke-miterlimit:10;stroke-opacity:1;stroke-dasharray:none"
               id="path138"
               inkscape:connector-curvature="0" /></g><g
             id="g140"
             transform="scale(10,10)"><text
               transform="scale(0.9351802,-1.0693126)"
               id="text142"
               x="272.50897"
               y="-81.935349"
               style="font-size:11.22216225px"><tspan
                 style="font-size:7.36025143px;font-variant:normal;font-weight:normal;writing-mode:lr-tb;fill:#050606;fill-opacity:1;fill-rule:nonzero;stroke:none;font-family:Times New Roman;-inkscape-font-specification:TimesNewRomanPSMT"
                 x="272.50897 276.47177 280.43408 284.40082 288.36481 291.76321 296.86111 298.56659 304.78949 308.18747 310.45889 314.42566 318.38922 320.09384 324.05893 328.02167"
                 y="-81.935349"
                 sodipodi:role="line"
                 id="tspan144">Changeingradient</tspan></text>
</g><g
             id="g146"
             transform="scale(10,10)"><text
               transform="matrix(0,0.902825,1,0,15.2203,48.5715)"
               id="text148"><tspan
                 style="font-size:10.03509998px;font-variant:normal;font-weight:normal;writing-mode:lr-tb;fill:#000000;fill-opacity:1;fill-rule:nonzero;stroke:none;font-family:Times New Roman;-inkscape-font-specification:TimesNewRomanPSMT"
                 x="0 6.4922543 11.509804 15.973454 19.324837 23.78042 28.797972 35.771103 40.788651 45.806202 50.261784 55.279335 58.079098 60.868858 64.762138 69.216278 76.742569 81.207962 84.559341 87.911156 92.928711 98.789146 102.1401 107.15765 112.7276 117.19256"
                 y="0"
                 sodipodi:role="line"
                 id="tspan150">Averagequantisederror(hPa)</tspan></text>
<text
               transform="matrix(0,0.99383147,1.0062068,0,0,0)"
               id="text152"
               x="105.93044"
               y="229.47966"
               style="font-size:11.92597771px"><tspan
                 style="font-size:9.74430847px;font-variant:normal;font-weight:normal;writing-mode:lr-tb;fill:#000000;fill-opacity:1;fill-rule:nonzero;stroke:none;font-family:Times New Roman;-inkscape-font-specification:TimesNewRomanPSMT"
                 x="105.93044 110.80259 116.21104"
                 y="229.47966"
                 sodipodi:role="line"
                 id="tspan154">hPa</tspan></text>
</g></g></g><g
         id="g156"><g
           id="g158"
           clip-path="url(#clipPath160)"><path
             d="m 66.012335,1954.96 3022.397565,0 c 6.8371,0 12.3425,-5.55 12.3425,-12.42 l 0,-1872.6611 c 0,-6.8672 -5.5054,-12.418 -12.3425,-12.418 l -3022.397565,0 c -6.828138,0 -12.340435,5.5508 -12.340435,12.418 l 0,1872.6611 c 0,6.87 5.512297,12.42 12.340435,12.42 z"
             style="fill:none;stroke:#000000;stroke-width:3.936;stroke-linecap:butt;stroke-linejoin:miter;stroke-miterlimit:4;stroke-opacity:1;stroke-dasharray:none"
             id="path164"
             inkscape:connector-curvature="0" /></g></g></g></g></svg>